<svg xmlns="http://www.w3.org/2000/svg" xmlns:xlink="http://www.w3.org/1999/xlink" viewBox="0 0 296.61 226.9"><defs><style>.cls-1{fill:url(#linear-gradient);}.cls-2,.cls-5{fill:#fff;}.cls-2,.cls-6{stroke:#fff;stroke-miterlimit:10;}.cls-3{fill:url(#linear-gradient-2);}.cls-4,.cls-6{fill:none;}.cls-7{fill:#39b54a;}</style><linearGradient id="linear-gradient" x1="136.18" y1="13.27" x2="136.68" y2="13.27" gradientUnits="userSpaceOnUse"><stop offset="0" stop-color="#00a2a2"/><stop offset="0.13" stop-color="#1c75bc"/></linearGradient><linearGradient id="linear-gradient-2" x1="144" y1="412.5" x2="440" y2="412.5" gradientUnits="userSpaceOnUse"><stop offset="0.13" stop-color="#1c75bc"/><stop offset="0.45" stop-color="#00a2a2"/><stop offset="1" stop-color="#83c441"/></linearGradient></defs><g id="Layer_4" data-name="Layer 4"><rect class="cls-1" x="0.29" width="73.05" height="26.54"/></g><g id="Layer_6" data-name="Layer 6"><rect class="cls-2" x="6.66" y="4.49" width="60.3" height="27.22"/></g><g id="file"><path class="cls-3" d="M439.92,312a9.16,9.16,0,0,0-1-.64,11.61,11.61,0,0,0-1.66-.33H148.79c-.62.05-1.23.11-1.83.21-1,.15-2.38.47-3,1.41V513.1a1.57,1.57,0,0,0,.14.25l.05.07,0,0,.15.15a.6.6,0,0,1,.08.08c-.08-.08,0,0,0,0l.25.13a3.07,3.07,0,0,1,.31.17H264.21l.54,0c.19,0,.36,0,.54,0H439.54l.09-.06,0,0,0,0a.38.38,0,0,0,.09-.09h0l.05-.07a.43.43,0,0,1,0-.07v0l0-.07,0-.08c0-.05,0-.09,0-.14v-82a12.71,12.71,0,0,1,0-4V312.17l-.05-.09A.61.61,0,0,1,439.92,312Z" transform="translate(-143.71 -287.34)"/></g><g id="web"><path class="cls-4" d="M297,312.49a61.77,61.77,0,0,1,1.39,13.44,310.35,310.35,0,0,1-6,68.4,21.8,21.8,0,0,1-2,6.4c-.78,1.41-3.37,4.53-2.23,6.31s4.18.38,5.77.1c4.72-.81,9.4-1.84,14-3.06,18.42-4.84,36-12.56,52.54-21.9,22.14-12.49,42.46-27.95,62.1-44.09,8-6.58,16.56-14.56,16.9-24.92" transform="translate(-143.71 -287.34)"/><path class="cls-5" d="M332.55,307l.26.25" transform="translate(-143.71 -287.34)"/><path class="cls-4" d="M296.4,311.05l.08,69.12c0,6.32,0,12.69-1.34,18.87-1,4.41-2.61,8.78-2.3,13.28,11.48-5.38,23.69-11,35.31-16.07,16.25-7.07,32.76-13.89,47.41-23.86a129.63,129.63,0,0,0,47.7-60.18" transform="translate(-143.71 -287.34)"/><path class="cls-4" d="M293.87,413.85l74.62-.07a148.53,148.53,0,0,1,19.68.86c7.45,1,14.69,3.09,21.87,5.25q12.73,3.84,25.37,7.93" transform="translate(-143.71 -287.34)"/><line class="cls-6" x1="0.29" y1="26.54" x2="141.78" y2="126.44"/><line class="cls-6" x1="157.04" y1="23.66" x2="141.78" y2="126.44"/><line class="cls-6" x1="295.23" y1="23.99" x2="141.78" y2="126.44"/><line class="cls-6" x1="0.29" y1="126.44" x2="141.78" y2="126.44"/><path class="cls-6" d="M439.15,429.26C388,424,336,419,285.49,413.78" transform="translate(-143.71 -287.34)"/><line class="cls-6" x1="1.01" y1="226.49" x2="141.78" y2="126.44"/><path class="cls-6" d="M438.78,512.52l-20.45-13.35-36.83-24-41.68-27.2-35-22.83-16.77-10.94-.24-.15" transform="translate(-143.71 -287.34)"/><line class="cls-6" x1="143.05" y1="224.69" x2="141.78" y2="126.44"/><path class="cls-6" d="M301.38,422.48a6.64,6.64,0,0,1,1.25-7,9.52,9.52,0,0,1-3-6c-.24-2.29-.84-4.64.52-6.5a10.94,10.94,0,0,1-8.29-2.85c-2.21-2-3.83-4.36-3.79-7.37-1.89,4.33-6.42,7.13-11.1,7.84s-9.45-.42-13.83-2.2a12.87,12.87,0,0,1,3,7.44,12.19,12.19,0,0,1-2.25,7.47,19.23,19.23,0,0,1,3.57,12.35,17,17,0,0,1,10.18,2.4,17.35,17.35,0,0,1,7.12,7.82,13,13,0,0,0,.73,1.61C289.06,431.53,294.9,425,301.38,422.48Z" transform="translate(-143.71 -287.34)"/><path class="cls-6" d="M327,418.29c-5.23-10.47-4.87-24.36,1.84-33.94a56.53,56.53,0,0,1-16.17-.35,28.07,28.07,0,0,1-11.37-4.12,19,19,0,0,1-7.86-18.29c0,6.75-5.59,13.24-11.2,17s-12.44,5.24-19.17,5.7a70.47,70.47,0,0,1-20.68-1.66c2.7,6.11,3.15,12.47,3.7,19.12a19.71,19.71,0,0,1-.29,6.55,8.6,8.6,0,0,1-3.63,5.31,33.07,33.07,0,0,1,5.38,26.5c7.36.43,15,1.36,21.95,3.87s13.37,7.31,16.17,14.13c2.64-6.84,8.53-12.75,14.61-16.85A36.38,36.38,0,0,1,321,435.07C320.66,429,322.21,422.05,327,418.29Z" transform="translate(-143.71 -287.34)"/><path class="cls-6" d="M296.85,337.66a71.57,71.57,0,0,0,1.14,11.6,24.08,24.08,0,0,0,4.74,10.53c3.24,3.9,8,6.25,12.74,8a73.37,73.37,0,0,0,33.59,3.92c-2,8.44-3.77,16.05-4.08,24.71s1.2,17.6,5.77,25a36,36,0,0,0-9.28,26.15,9.13,9.13,0,0,1-.28,1.79,71.52,71.52,0,0,0-32,14.11,75.13,75.13,0,0,0-22.28,28.12" transform="translate(-143.71 -287.34)"/><path class="cls-6" d="M377.07,350.55a245,245,0,0,1-35-2.33c-9.23-1.28-18.6-3.18-26.61-8S301,327.34,300.39,318a2.16,2.16,0,0,0-.29-.75c-12.13,14.52-30.05,23.44-48.44,27.9s-37.47,5-56.39,5.45c4.37,17.3,1.49,35-6.6,50.91A41.61,41.61,0,0,1,179.56,414" transform="translate(-143.71 -287.34)"/><path class="cls-6" d="M179.78,413.88c12.2,19,18.38,43.42,13.08,65.4,13.75-2.42,28-.7,41.39,3.24s26.05,10,38.44,16.47a44.19,44.19,0,0,1,8.13,5,15.56,15.56,0,0,1,5.32,7.82,148.18,148.18,0,0,1,49.56-35.27c11.89-5.18,24.74-9.68,37.56-7.7-3.06-15.66-.44-32.81,7.76-46.5-5.43-5.13-7.22-13-8-20.42a119,119,0,0,1,3.64-44.76c.74-2.65.44-6.62,1.64-8.08" transform="translate(-143.71 -287.34)"/><path class="cls-6" d="M163.88,328.25a5.74,5.74,0,0,0-1.06-1,16,16,0,0,0,.79,1.74" transform="translate(-143.71 -287.34)"/><path class="cls-6" d="M163.74,328.07l-.92-.79a59.68,59.68,0,0,0,3,7.67" transform="translate(-143.71 -287.34)"/><path class="cls-6" d="M234.16,311.56C214,326,187,333,162.82,327.28c1,2.25,3.11,0,0,0,.31.45.53,1,.86,1.44" transform="translate(-143.71 -287.34)"/><path class="cls-2" d="M287.37,490.54l-.53,1.46" transform="translate(-143.71 -287.34)"/><path class="cls-2" d="M287.16,491l-.56,2.05" transform="translate(-143.71 -287.34)"/><path class="cls-2" d="M286.83,492.38l-.26,1.87" transform="translate(-143.71 -287.34)"/><path class="cls-2" d="M286.69,509.43l-.61,4.61" transform="translate(-143.71 -287.34)"/><path class="cls-6" d="M439.46,428.93C421,398,411,362,417.91,326.25" transform="translate(-143.71 -287.34)"/><path class="cls-6" d="M417.44,325a162.48,162.48,0,0,1-63.16-15.05" transform="translate(-143.71 -287.34)"/><path class="cls-6" d="M228.38,453.3l-.23,1.18" transform="translate(-143.71 -287.34)"/><path class="cls-6" d="M296,339.05c-3.4,9.79-9.5,18.83-18.11,24.59-7.77,5.19-17.17,7.49-26.5,8.05s-18.65-.52-27.93-1.6a52.29,52.29,0,0,1-.54,43.26c7.92,10.81,11,25.5,8.65,38.7,21.3,7.72,40.3,20.93,53.64,39.24.38.52-.09,1.36.13,2" transform="translate(-143.71 -287.34)"/><path class="cls-6" d="M165.27,333.75l.79,2.22" transform="translate(-143.71 -287.34)"/><path class="cls-6" d="M164.62,332.2l1.79,4.39" transform="translate(-143.71 -287.34)"/><path class="cls-6" d="M166.52,336a114,114,0,0,1-3.17,79.22" transform="translate(-143.71 -287.34)"/><path class="cls-6" d="M163,412.94a99.82,99.82,0,0,1,5.05,83.17,197.11,197.11,0,0,1,33.11,3.63c10.87,2,21.58,6.07,30.06,13.18" transform="translate(-143.71 -287.34)"/><path class="cls-6" d="M440,429.07c-18.54,15.78-30.21,40-31.69,64.29-12.2,0-24.5-.08-36.45,2.41s-23.65,7.74-31.85,16.77" transform="translate(-143.71 -287.34)"/></g><g id="Layer_7" data-name="Layer 7"><path class="cls-7" d="M170.54,305.89a3.3,3.3,0,0,1-1.3-1.39,4.46,4.46,0,0,1-.46-2.08v-2.93a4.46,4.46,0,0,1,.46-2.08,3.38,3.38,0,0,1,1.3-1.4,3.77,3.77,0,0,1,2-.49,3.59,3.59,0,0,1,3,1.5,4.34,4.34,0,0,1,.7,1.66h-1.54a2.29,2.29,0,0,0-.46-.89,2.24,2.24,0,0,0-.77-.6,1.93,1.93,0,0,0-.9-.22,2.09,2.09,0,0,0-1.15.32,2.12,2.12,0,0,0-.76.88,3.05,3.05,0,0,0-.27,1.32v2.93a3,3,0,0,0,.27,1.31,2.14,2.14,0,0,0,.76.89,2.17,2.17,0,0,0,1.15.31,2.23,2.23,0,0,0,.91-.2,2.25,2.25,0,0,0,1.22-1.51h1.54a4.14,4.14,0,0,1-.71,1.66,3.45,3.45,0,0,1-1.29,1.11,3.64,3.64,0,0,1-1.67.4A3.77,3.77,0,0,1,170.54,305.89Z" transform="translate(-143.71 -287.34)"/><path class="cls-7" d="M182.8,295.63h1L186,304l1.88-8.35h1.55l-2.6,10.65h-1.52l-2-7.45-2,7.45h-1.52l-2.6-10.65h1.55l1.89,8.35Z" transform="translate(-143.71 -287.34)"/></g></svg>